<svg width="27" height="27" viewBox="0 0 27 27" fill="none" xmlns="http://www.w3.org/2000/svg">
    <path d="M24.3896 9.07031C24.7852 9.29004 25.1455 9.55811 25.4707 9.87451C25.7959 10.1909 26.0684 10.5425 26.2881 10.9292C26.5078 11.3159 26.6836 11.7246 26.8154 12.1553C26.9473 12.5859 27.0088 13.0342 27 13.5H25.3125C25.3125 13.043 25.2246 12.6079 25.0488 12.1948C24.873 11.7817 24.6313 11.4258 24.3237 11.127C24.0161 10.8281 23.6558 10.5864 23.2427 10.4019C22.8296 10.2173 22.3945 10.125 21.9375 10.125C21.4717 10.125 21.0366 10.2129 20.6323 10.3887C20.228 10.5645 19.8721 10.8062 19.5645 11.1138C19.2568 11.4214 19.0151 11.7817 18.8394 12.1948C18.6636 12.6079 18.5713 13.043 18.5625 13.5C18.5625 14.2998 18.3823 15.0601 18.022 15.7808C17.6616 16.5015 17.1562 17.0991 16.5059 17.5737C17.0771 17.8638 17.5913 18.2197 18.0483 18.6416C18.5054 19.0635 18.9009 19.5381 19.2349 20.0654C19.5688 20.5928 19.8193 21.1553 19.9863 21.7529C20.1533 22.3506 20.2412 22.9746 20.25 23.625H18.5625C18.5625 22.9307 18.4307 22.2759 18.167 21.6606C17.9033 21.0454 17.5386 20.5093 17.0728 20.0522C16.6069 19.5952 16.0708 19.2349 15.4644 18.9712C14.8579 18.7075 14.2031 18.5713 13.5 18.5625C12.8057 18.5625 12.1509 18.6943 11.5356 18.958C10.9204 19.2217 10.3843 19.5864 9.92725 20.0522C9.47021 20.5181 9.10986 21.0542 8.84619 21.6606C8.58252 22.2671 8.44629 22.9219 8.4375 23.625H6.75C6.75 22.9834 6.83789 22.3638 7.01367 21.7661C7.18945 21.1685 7.43994 20.606 7.76514 20.0786C8.09033 19.5513 8.48145 19.0767 8.93848 18.6548C9.39551 18.2329 9.91406 17.8726 10.4941 17.5737C9.85254 17.0991 9.35156 16.5015 8.99121 15.7808C8.63086 15.0601 8.44629 14.2998 8.4375 13.5C8.4375 13.043 8.34961 12.6079 8.17383 12.1948C7.99805 11.7817 7.75635 11.4258 7.44873 11.127C7.14111 10.8281 6.78076 10.5864 6.36768 10.4019C5.95459 10.2173 5.51953 10.125 5.0625 10.125C4.59668 10.125 4.16162 10.2129 3.75732 10.3887C3.35303 10.5645 2.99707 10.8062 2.68945 11.1138C2.38184 11.4214 2.14014 11.7817 1.96436 12.1948C1.78857 12.6079 1.69629 13.043 1.6875 13.5H0C0 13.043 0.0615234 12.5991 0.18457 12.1685C0.307617 11.7378 0.479004 11.3291 0.69873 10.9424C0.918457 10.5557 1.19531 10.2041 1.5293 9.8877C1.86328 9.57129 2.22363 9.29883 2.61035 9.07031C2.32031 8.7627 2.09619 8.40674 1.93799 8.00244C1.77979 7.59814 1.69629 7.18066 1.6875 6.75C1.6875 6.29297 1.77539 5.85791 1.95117 5.44482C2.12695 5.03174 2.36865 4.67578 2.67627 4.37695C2.98389 4.07812 3.33984 3.83643 3.74414 3.65186C4.14844 3.46729 4.58789 3.375 5.0625 3.375C5.51953 3.375 5.95459 3.46289 6.36768 3.63867C6.78076 3.81445 7.13672 4.05615 7.43555 4.36377C7.73438 4.67139 7.97607 5.03174 8.16064 5.44482C8.34521 5.85791 8.4375 6.29297 8.4375 6.75C8.4375 7.18066 8.3584 7.59814 8.2002 8.00244C8.04199 8.40674 7.81348 8.7627 7.51465 9.07031C8.23535 9.46582 8.82422 10.0107 9.28125 10.7051C9.75586 10.002 10.3623 9.44824 11.1006 9.04395C11.8389 8.63965 12.6387 8.4375 13.5 8.4375C14.3525 8.4375 15.1479 8.63965 15.8862 9.04395C16.6245 9.44824 17.2354 10.002 17.7188 10.7051C18.1758 10.0107 18.7646 9.46582 19.4854 9.07031C19.1953 8.7627 18.9712 8.40674 18.813 8.00244C18.6548 7.59814 18.5713 7.18066 18.5625 6.75C18.5625 6.29297 18.6504 5.85791 18.8262 5.44482C19.002 5.03174 19.2437 4.67578 19.5513 4.37695C19.8589 4.07812 20.2148 3.83643 20.6191 3.65186C21.0234 3.46729 21.4629 3.375 21.9375 3.375C22.3945 3.375 22.8296 3.46289 23.2427 3.63867C23.6558 3.81445 24.0117 4.05615 24.3105 4.36377C24.6094 4.67139 24.8511 5.03174 25.0356 5.44482C25.2202 5.85791 25.3125 6.29297 25.3125 6.75C25.3125 7.18066 25.2334 7.59814 25.0752 8.00244C24.917 8.40674 24.6885 8.7627 24.3896 9.07031ZM3.375 6.75C3.375 6.9873 3.41895 7.20703 3.50684 7.40918C3.59473 7.61133 3.71338 7.78711 3.86279 7.93652C4.01221 8.08594 4.19238 8.20898 4.40332 8.30566C4.61426 8.40234 4.83398 8.44629 5.0625 8.4375C5.2998 8.4375 5.51953 8.39355 5.72168 8.30566C5.92383 8.21777 6.09961 8.09912 6.24902 7.94971C6.39844 7.80029 6.52148 7.62012 6.61816 7.40918C6.71484 7.19824 6.75879 6.97852 6.75 6.75C6.75 6.5127 6.70605 6.29297 6.61816 6.09082C6.53027 5.88867 6.41162 5.71289 6.26221 5.56348C6.11279 5.41406 5.93262 5.29102 5.72168 5.19434C5.51074 5.09766 5.29102 5.05371 5.0625 5.0625C4.8252 5.0625 4.60547 5.10645 4.40332 5.19434C4.20117 5.28223 4.02539 5.40088 3.87598 5.55029C3.72656 5.69971 3.60352 5.87988 3.50684 6.09082C3.41016 6.30176 3.36621 6.52148 3.375 6.75ZM13.5 16.875C13.957 16.875 14.3921 16.7871 14.8052 16.6113C15.2183 16.4355 15.5742 16.1938 15.873 15.8862C16.1719 15.5786 16.4136 15.2227 16.5981 14.8184C16.7827 14.4141 16.875 13.9746 16.875 13.5C16.875 13.043 16.7871 12.6079 16.6113 12.1948C16.4355 11.7817 16.1938 11.4258 15.8862 11.127C15.5786 10.8281 15.2183 10.5864 14.8052 10.4019C14.3921 10.2173 13.957 10.125 13.5 10.125C13.0342 10.125 12.5991 10.2129 12.1948 10.3887C11.7905 10.5645 11.4346 10.8062 11.127 11.1138C10.8193 11.4214 10.5776 11.7817 10.4019 12.1948C10.2261 12.6079 10.1338 13.043 10.125 13.5C10.125 13.9658 10.2129 14.4009 10.3887 14.8052C10.5645 15.2095 10.8062 15.5654 11.1138 15.873C11.4214 16.1807 11.7773 16.4224 12.1816 16.5981C12.5859 16.7739 13.0254 16.8662 13.5 16.875ZM20.25 6.75C20.25 6.9873 20.2939 7.20703 20.3818 7.40918C20.4697 7.61133 20.5884 7.78711 20.7378 7.93652C20.8872 8.08594 21.0674 8.20898 21.2783 8.30566C21.4893 8.40234 21.709 8.44629 21.9375 8.4375C22.1748 8.4375 22.3945 8.39355 22.5967 8.30566C22.7988 8.21777 22.9746 8.09912 23.124 7.94971C23.2734 7.80029 23.3965 7.62012 23.4932 7.40918C23.5898 7.19824 23.6338 6.97852 23.625 6.75C23.625 6.5127 23.5811 6.29297 23.4932 6.09082C23.4053 5.88867 23.2866 5.71289 23.1372 5.56348C22.9878 5.41406 22.8076 5.29102 22.5967 5.19434C22.3857 5.09766 22.166 5.05371 21.9375 5.0625C21.7002 5.0625 21.4805 5.10645 21.2783 5.19434C21.0762 5.28223 20.9004 5.40088 20.751 5.55029C20.6016 5.69971 20.4785 5.87988 20.3818 6.09082C20.2852 6.30176 20.2412 6.52148 20.25 6.75Z" fill="#777777"/>
</svg>
