<svg width="28" height="16" viewBox="0 0 28 16" fill="none" xmlns="http://www.w3.org/2000/svg">
    <path d="M26.5 14.25V10.5M26.5 10.5H1.5M26.5 10.5H14V4.25H22.75C23.7446 4.25 24.6984 4.64509 25.4016 5.34835C26.1049 6.05161 26.5 7.00544 26.5 8V10.5ZM1.5 3V14.25M5.25 4.25C5.25 4.91304 5.51339 5.54893 5.98223 6.01777C6.45107 6.48661 7.08696 6.75 7.75 6.75C8.41304 6.75 9.04892 6.48661 9.51777 6.01777C9.98661 5.54893 10.25 4.91304 10.25 4.25C10.25 3.58696 9.98661 2.95107 9.51777 2.48223C9.04892 2.01339 8.41304 1.75 7.75 1.75C7.08696 1.75 6.45107 2.01339 5.98223 2.48223C5.51339 2.95107 5.25 3.58696 5.25 4.25Z" stroke="#777777" stroke-width="2" stroke-linecap="round" stroke-linejoin="round"/>
</svg>
