<svg width="78" height="78" viewBox="0 0 78 78" fill="none" xmlns="http://www.w3.org/2000/svg">
    <g filter="url(#filter0_d_14_134)">
        <circle cx="39" cy="35" r="35" fill="white"/>
        <circle cx="39" cy="35" r="34.5" stroke="#777777"/>
    </g>
    <path d="M39 12.25V16.4167" stroke="black" stroke-width="2" stroke-linecap="round" stroke-linejoin="round"/>
    <path d="M39 16.4167C32.1042 16.4167 26.5 22.0208 26.5 28.9167V41.4167C24.4167 41.4167 22.3334 43.5 22.3334 45.5833H39M39 16.4167C45.8959 16.4167 51.5 22.0208 51.5 28.9167V41.4167C53.5834 41.4167 55.6667 43.5 55.6667 45.5833H39" stroke="black" stroke-width="2" stroke-linecap="round" stroke-linejoin="round"/>
    <path d="M34.8334 47.6667C34.8334 49.9583 36.7084 51.8333 39 51.8333C41.2917 51.8333 43.1667 49.9583 43.1667 47.6667" stroke="black" stroke-width="2" stroke-linecap="round" stroke-linejoin="round"/>
    <circle cx="49" cy="18" r="6" fill="#FF4848"/>
    <defs>
        <filter id="filter0_d_14_134" x="0" y="0" width="78" height="78" filterUnits="userSpaceOnUse" color-interpolation-filters="sRGB">
            <feFlood flood-opacity="0" result="BackgroundImageFix"/>
            <feColorMatrix in="SourceAlpha" type="matrix" values="0 0 0 0 0 0 0 0 0 0 0 0 0 0 0 0 0 0 127 0" result="hardAlpha"/>
            <feOffset dy="4"/>
            <feGaussianBlur stdDeviation="2"/>
            <feComposite in2="hardAlpha" operator="out"/>
            <feColorMatrix type="matrix" values="0 0 0 0 0 0 0 0 0 0 0 0 0 0 0 0 0 0 0.25 0"/>
            <feBlend mode="normal" in2="BackgroundImageFix" result="effect1_dropShadow_14_134"/>
            <feBlend mode="normal" in="SourceGraphic" in2="effect1_dropShadow_14_134" result="shape"/>
        </filter>
    </defs>
</svg>
