<svg width="30" height="30" viewBox="0 0 30 30" fill="none" xmlns="http://www.w3.org/2000/svg">
    <path d="M3.75 10H12.5C13.2417 10 13.9667 9.78007 14.5834 9.36801C15.2001 8.95596 15.6807 8.37029 15.9645 7.68506C16.2484 6.99984 16.3226 6.24584 16.1779 5.51841C16.0333 4.79098 15.6761 4.1228 15.1517 3.59835C14.6272 3.0739 13.959 2.71675 13.2316 2.57206C12.5042 2.42736 11.7502 2.50162 11.0649 2.78545C10.3797 3.06928 9.79404 3.54993 9.38199 4.16661C8.96993 4.7833 8.75 5.50832 8.75 6.25M5 20H18.75C19.4917 20 20.2167 20.2199 20.8334 20.632C21.4501 21.044 21.9307 21.6297 22.2145 22.3149C22.4984 23.0002 22.5726 23.7542 22.4279 24.4816C22.2833 25.209 21.9261 25.8772 21.4017 26.4017C20.8772 26.9261 20.209 27.2833 19.4816 27.4279C18.7542 27.5726 18.0002 27.4984 17.3149 27.2146C16.6297 26.9307 16.044 26.4501 15.632 25.8334C15.2199 25.2167 15 24.4917 15 23.75M2.5 15H23.75C24.4917 15 25.2167 14.7801 25.8334 14.368C26.4501 13.956 26.9307 13.3703 27.2145 12.6851C27.4984 11.9998 27.5726 11.2458 27.4279 10.5184C27.2833 9.79098 26.9261 9.1228 26.4017 8.59835C25.8772 8.0739 25.209 7.71675 24.4816 7.57206C23.7542 7.42736 23.0002 7.50163 22.3149 7.78545C21.6297 8.06928 21.044 8.54993 20.632 9.16661C20.2199 9.7833 20 10.5083 20 11.25" stroke="#777777" stroke-width="2" stroke-linecap="round" stroke-linejoin="round"/>
</svg>
