<svg width="27" height="27" viewBox="0 0 27 27" fill="none" xmlns="http://www.w3.org/2000/svg">
    <path d="M22.4327 10.5487C21.8094 9.08503 20.8364 7.79669 19.599 6.79682C18.3616 5.79695 16.8977 5.11612 15.3358 4.81408L16.7468 2.55658L15.3158 1.6622L13.454 4.64106C11.5575 4.64989 9.70522 5.2141 8.1259 6.26401C6.54657 7.31391 5.30944 8.8035 4.56733 10.5487C3.57331 10.5676 2.62639 10.9758 1.9301 11.6854C1.23382 12.3951 0.84375 13.3496 0.84375 14.3438C0.84375 15.338 1.23382 16.2925 1.9301 17.0021C2.62639 17.7118 3.57331 18.1199 4.56733 18.1388C5.31257 19.8912 6.55681 21.3857 8.14514 22.4362C9.73346 23.4868 11.5957 24.0469 13.5 24.0469C15.4043 24.0469 17.2665 23.4868 18.8549 22.4362C20.4432 21.3857 21.6874 19.8912 22.4327 18.1388C23.4267 18.1199 24.3736 17.7118 25.0699 17.0021C25.7662 16.2925 26.1563 15.338 26.1563 14.3438C26.1563 13.3496 25.7662 12.3951 25.0699 11.6854C24.3736 10.9758 23.4267 10.5676 22.4327 10.5487ZM23.8645 15.8209C23.4786 16.2156 22.9526 16.4422 22.4006 16.4516L21.3077 16.4724L20.8799 17.4782C20.2643 18.9261 19.2364 20.161 17.9242 21.029C16.6119 21.897 15.0734 22.3598 13.5 22.3598C11.9267 22.3598 10.3881 21.897 9.0759 21.029C7.76367 20.161 6.73577 18.9261 6.1202 17.4782L5.69231 16.4724L4.59939 16.4516C4.04719 16.4413 3.52109 16.2147 3.13422 15.8205C2.74736 15.4263 2.53063 14.8961 2.53063 14.3438C2.53063 13.7915 2.74736 13.2612 3.13422 12.867C3.52109 12.4729 4.04719 12.2463 4.59939 12.2359L5.69231 12.2151L6.1202 11.2093C6.73579 9.7614 7.7637 8.52658 9.07592 7.65859C10.3881 6.7906 11.9267 6.3278 13.5 6.3278C15.0733 6.3278 16.6119 6.7906 17.9241 7.65859C19.2364 8.52658 20.2643 9.7614 20.8799 11.2093L21.3077 12.2151L22.4006 12.2359C22.8125 12.2437 23.213 12.372 23.5528 12.6049C23.8926 12.8379 24.1566 13.1653 24.3123 13.5466C24.4681 13.928 24.5087 14.3466 24.4291 14.7508C24.3495 15.155 24.1532 15.527 23.8645 15.8209Z" fill="#777777"/>
    <path d="M8.85938 12.2344H10.9688V14.3438H8.85938V12.2344ZM16.0312 12.2344H18.1406V14.3438H16.0312V12.2344ZM13.5 20.25C14.054 20.25 14.6026 20.1409 15.1144 19.9289C15.6263 19.7169 16.0914 19.4061 16.4831 19.0144C16.8749 18.6226 17.1856 18.1575 17.3976 17.6457C17.6096 17.1339 17.7188 16.5853 17.7188 16.0312H9.28125C9.28125 16.5853 9.39037 17.1339 9.60238 17.6457C9.81439 18.1575 10.1251 18.6226 10.5169 19.0144C11.3081 19.8055 12.3811 20.25 13.5 20.25Z" fill="#777777"/>
</svg>
