<svg width="30" height="30" viewBox="0 0 30 30" fill="none" xmlns="http://www.w3.org/2000/svg">
    <path d="M6.25 12.5H23.75M11.25 16.25V20M11.25 7.5V8.75M6.25 6.25C6.25 5.58696 6.51339 4.95107 6.98223 4.48223C7.45107 4.01339 8.08696 3.75 8.75 3.75H21.25C21.913 3.75 22.5489 4.01339 23.0178 4.48223C23.4866 4.95107 23.75 5.58696 23.75 6.25V23.75C23.75 24.413 23.4866 25.0489 23.0178 25.5178C22.5489 25.9866 21.913 26.25 21.25 26.25H8.75C8.08696 26.25 7.45107 25.9866 6.98223 25.5178C6.51339 25.0489 6.25 24.413 6.25 23.75V6.25Z" stroke="#777777" stroke-width="2" stroke-linecap="round" stroke-linejoin="round"/>
</svg>
