<svg width="30" height="30" viewBox="0 0 30 30" fill="none" xmlns="http://www.w3.org/2000/svg">
    <path d="M10 26.25V23.75H5C4.3125 23.75 3.72417 23.5054 3.235 23.0163C2.74583 22.5271 2.50083 21.9383 2.5 21.25V6.25C2.5 5.5625 2.745 4.97417 3.235 4.485C3.725 3.99583 4.31333 3.75083 5 3.75H25C25.6875 3.75 26.2763 3.995 26.7663 4.485C27.2563 4.975 27.5008 5.56333 27.5 6.25V21.25C27.5 21.9375 27.2554 22.5263 26.7663 23.0163C26.2771 23.5063 25.6883 23.7508 25 23.75H20V26.25H10ZM5 21.25H25V6.25H5V21.25Z" fill="#777777"/>
</svg>
